<?xml version="1.0" encoding="UTF-8" standalone="no"?>
<svg width="320px" height="577px" viewBox="0 0 320 577" version="1.1" xmlns="http://www.w3.org/2000/svg" xmlns:xlink="http://www.w3.org/1999/xlink">
    <!-- Generator: Sketch 41.2 (35397) - http://www.bohemiancoding.com/sketch -->
    <title>Woman_silhouette</title>
    <desc>Created with Sketch.</desc>
    <defs></defs>
    <g id="Page-1" stroke="none" stroke-width="1" fill="none" fill-rule="evenodd" fill-opacity="0.2">
        <g id="Woman_silhouette" transform="translate(1.000000, 0.000000)" stroke="#84D020" stroke-width="2" fill="#FFFFFF">
            <g id="layer1" transform="translate(0.022426, 0.665683)">
                <path d="M264.351534,247.719168 C250.219834,231.918965 235.64225,216.1924 226.742911,196.681681 C215.701553,180.873095 204.081107,164.965678 196.300829,147.316619 C194.247998,138.036914 192.570833,133.927517 191.046575,145.769627 C188.305449,162.132097 183.332852,179.211112 187.583261,195.643966 C194.828261,207.604101 201.557403,219.936323 203.131262,234.088947 C208.267716,255.78001 210.878347,278.256216 206.071888,300.373485 C201.07832,323.351786 196.490162,346.587641 191.355008,369.434015 C189.35933,389.859452 193.793984,410.223345 191.667679,430.582759 C190.129302,438.985742 187.145781,447.080188 190.350704,455.422831 C192.923033,465.860017 191.594442,477.544321 195.249724,487.39477 C201.667045,492.729311 209.534249,499.890769 205.337435,509.129488 C200.869212,525.286119 214.853855,539.82049 212.782046,556.158261 C215.488842,568.527395 197.993811,573.640224 191.413845,563.802371 C185.730159,556.821336 182.426198,547.197181 180.983579,538.643534 C181.097253,526.015542 185.660097,512.995819 178.593583,501.390946 C176.954307,491.327625 174.654339,487.031804 171.545662,499.418183 C164.39476,513.550684 168.904674,529.732685 164.89974,544.570043 C164.917683,554.950895 166.770852,568.889844 154.746383,573.418534 C148.619951,572.486277 143.778225,574.499781 137.896094,574.63984 C132.468132,575.424224 124.843375,572.706188 129.627924,564.481732 C132.989704,553.470539 139.662202,543.515636 141.53457,531.898085 C144.147232,522.037371 146.665847,512.432933 151.133361,503.253934 C154.49966,480.533524 154.230947,457.201171 154.465442,434.298677 C151.032935,422.367129 144.867042,411.332905 142.022123,399.147147 C138.809409,385.447111 142.908315,370.292398 135.248202,357.417221 C123.660121,327.309148 106.687541,298.575029 102.16387,266.274319 C101.783566,252.672198 106.32527,239.817477 108.675812,226.669663 C109.543153,211.395502 118.379563,196.467541 113.602214,181.139009 C109.234136,192.638948 107.181032,205.497596 97.412646,213.875068 C82.3804725,231.147643 69.1029836,250.590856 50.1898872,263.902586 C43.2650839,267.057979 33.6719933,263.611236 30.275463,272.319612 C17.9440158,280.375613 28.0047146,262.344519 32.3885426,260.161866 C24.0230999,257.071891 17.3073228,265.660921 8.64273641,263.724715 C-2.07103366,266.009283 -2.71663206,258.700268 8.51497396,259.013793 C18.7860798,257.265524 27.6596187,249.941507 38.7057542,251.814693 C50.6541281,254.410026 55.0002742,240.245816 61.5986711,233.145281 C72.3139623,218.486621 78.106515,201.08727 88.0241216,186.006107 C97.0798153,163.831279 100.336621,139.475312 101.555378,115.654042 C101.032166,107.250173 102.455239,94.6516539 114.017578,95.8849138 C123.711028,95.2297343 134.189809,94.7187761 137.787472,83.0494594 C140.499577,75.047874 134.90242,67.9951646 132.985894,60.6948276 C134.168742,54.4932035 122.141652,53.9202296 125.496409,43.8271926 C117.593406,27.8432456 129.62277,9.68465929 143.023872,2.05237069 C154.360179,0.431838717 169.375095,-2.5168326 176.899161,8.50926724 C182.708424,24.2977474 188.017832,43.0645852 177.568359,58.2043103 C170.733821,58.8996259 169.536981,69.4627101 167.807292,75.1997845 C165.477137,90.6486511 184.725169,92.2861053 196.407229,91.904927 C208.617486,93.1244835 209.065489,107.999594 213.244581,116.912768 C220.228665,140.095978 229.945486,163.261987 246.934245,181.000647 C253.491792,200.675408 260.298499,220.648559 272.871455,237.40625 C283.278328,237.132101 294.145499,236.980014 302.91616,243.609483 C310.566615,242.634167 327.616589,250.137929 310.831163,249.397629 C302.446315,251.252345 296.067208,244.899851 288.143662,245.315948 C279.792891,244.763467 303.281061,261.840453 290.132161,259.682543 C285.322343,253.84221 280.176998,250.375322 272.24448,250.758241 C269.443601,250.120315 266.761978,249.332094 264.351534,247.719168 L264.351534,247.719168 Z" id="path2830"></path>
            </g>
        </g>
    </g>
</svg>