<?xml version="1.0" encoding="UTF-8" standalone="no"?>
<svg width="84px" height="337px" viewBox="0 0 84 337" version="1.1" xmlns="http://www.w3.org/2000/svg" xmlns:xlink="http://www.w3.org/1999/xlink">
    <!-- Generator: Sketch 41.2 (35397) - http://www.bohemiancoding.com/sketch -->
    <title>Combined Shape</title>
    <desc>Created with Sketch.</desc>
    <defs></defs>
    <g id="Page-1" stroke="none" stroke-width="1" fill="none" fill-rule="evenodd" fill-opacity="0.2">
        <path d="M48.3036543,1.28373913 C38.684466,1.43860978 31.3916151,6.850069 32.2569242,17.9786316 C33.1222332,29.1071943 32.4126142,30.4362958 34.4341269,34.043389 C36.4556396,37.6504822 38.350142,41.8491977 38.350142,43.807615 C38.350142,45.7660322 34.0694844,46.0749541 30.2903127,50.4834415 C26.511141,54.8919289 28.0786942,56.778237 23.3145779,56.8593597 C18.5504617,56.9404825 13.8969673,55.1017007 11.4288699,59.344665 C8.96077251,63.5876292 8.14135106,73.2576217 6.11901894,78.4306293 C4.09668681,83.6036368 1.11890929,92.499276 1.11890929,98.5662724 C1.11890929,104.633269 2.43899723,111.399232 12.8767876,111.399232 C9.75069478,118.876452 8.96405019,149.037717 8.96405019,164.138015 C8.96405019,179.238314 13.3340248,198.461941 17.1771113,209.289776 C21.0201979,220.117611 24.0799176,235.889835 25.6097774,238.795503 C27.1396372,241.701171 27.0585145,242.691852 25.7818559,244.678949 C24.5051973,246.666046 21.2447194,254.42187 23.0572796,268.437254 C24.8698398,282.452639 25.723677,290.392833 24.7239828,298.088839 C23.7242887,305.784845 21.0374058,318.815285 21.0374058,324.252965 C21.0374058,329.690646 21.8396193,335.36432 29.0513475,335.36432 C36.2630756,335.36432 36.8284764,327.449528 36.8284764,323.533513 C36.8284764,319.617498 36.0360959,306.157682 36.0360959,306.157682 C36.0360959,306.157682 39.8152676,315.272106 39.8152676,319.552764 C39.8152676,323.833422 37.6298706,335.034913 48.3036543,335.034913 C58.977438,335.034913 54.2772366,322.201954 52.3393049,317.274772 C50.4013732,312.347591 49.0091762,302.358844 50.1916013,295.464232 C51.3740265,288.56962 58.6504889,264.164791 58.6504889,250.367373 C58.6504889,236.569954 58.9503971,231.899252 58.9503971,231.899252 C58.9503971,231.899252 66.8004546,230.232549 68.8318003,227.382601 C70.8631461,224.532653 68.7498582,208.167988 69.7700379,200.82761 C70.7902176,193.487233 71.5014754,185.246312 74.3801029,178.059986 C77.2587305,170.87366 75.3593116,157.251597 72.0955559,145.111869 C68.8318003,132.97214 67.1503475,129.419129 67.1503475,122.6335 C71.8866035,123.752829 73.8532149,123.726608 74.7275376,122.651527 C75.6018603,121.576446 82.1023306,109.931648 82.1023306,97.2445456 C82.1023306,84.5574434 83.0749839,74.531822 80.872379,71.5532251 C78.6697742,68.5746281 73.6975249,65.9459241 69.9535883,63.4753685 C66.2096517,61.0048128 65.6524451,55.0664656 58.5488806,50.0196489 C57.8032071,44.9728323 58.0392005,42.53997 58.0392005,42.53997 C58.0392005,42.53997 60.3843847,37.8119083 61.2496937,34.2228423 C62.1150028,30.6337764 63.8718423,25.0133647 62.560768,15.7260421 C61.2496937,6.43871943 58.1924323,1.28373913 48.3036543,1.28373913 Z M36.6998272,301.031381 C36.6998272,301.031381 35.178981,293.309153 35.178981,288.891652 C35.178981,284.474151 40.0127481,273.07518 40.0127481,270.423532 C40.0127481,267.771884 41.1796043,286.896361 40.5961762,290.229768 C40.0127481,293.563174 36.6998272,301.031381 36.6998272,301.031381 Z" id="Combined-Shape" stroke="#F78C31" stroke-width="2" fill="#FFFFFF"></path>
    </g>
</svg>